<svg xmlns="http://www.w3.org/2000/svg" viewBox="0 0 64 64" width="64" height="64">
  <defs>
    <linearGradient id="stormCloud" x1="0%" y1="0%" x2="0%" y2="100%">
      <stop offset="0%" stop-color="#5D6D7E"/>
      <stop offset="50%" stop-color="#4A5A6A"/>
      <stop offset="100%" stop-color="#3A4A5A"/>
    </linearGradient>
    <filter id="stormGlow" x="-30%" y="-30%" width="160%" height="160%">
      <feDropShadow dx="0" dy="4" stdDeviation="6" flood-color="#2C3E50" flood-opacity="0.4"/>
    </filter>
  </defs>
  <g filter="url(#stormGlow)">
    <path d="M12 42
      C12 46.5 15 49.5 19 49.5
      H45
      C49 49.5 52 46.5 52 42
      C52 36.5 47.5 32 42 32
      C38 27 33 24 28 24
      C22 24 18 27 18 32.5
      C18 37 20.5 40.5 25 40.5
      C27 40.5 29 38.5 29 36.5
      C29 34 26.5 32 23 32
      C19 32 16 35 16 39
      C16 41.5 18 43.5 21 43.5
      H44
      C47 43.5 49 41 49 37
      C49 32 45 27.5 40 27.5
      C36 23 30 21 24 21
      C18 21 14 24.5 14 30
      Z" fill="url(#stormCloud)"/>
  </g>
  <!-- Lightning - powerful but not scary -->
  <g fill="none" stroke="#F39C12" stroke-width="3.5" stroke-linecap="round" stroke-linejoin="round" opacity="0.95">
    <path d="M28 26 L30 36 L24 36 L28 48"/>
    <path d="M38 26 L35 36 L41 36 L36 48" opacity="0.7"/>
  </g>
  <!-- Soft inner glow on lightning -->
  <g fill="none" stroke="#F8C471" stroke-width="1.5" stroke-linecap="round" opacity="0.6">
    <path d="M28 26 L30 36 L24 36 L28 48"/>
  </g>
  <!-- Face - alert, watching over you -->
  <g fill="#F39C12" opacity="0.85">
    <ellipse cx="25" cy="33" rx="2.5" ry="1.1" transform="rotate(-12 25 33)"/>
    <ellipse cx="39" cy="32" rx="2.5" ry="1.1" transform="rotate(12 39 32)"/>
  </g>
  <path d="M26 38.5 Q32 36.5 38 38.5" stroke="#F39C12" stroke-width="1.5" fill="none" stroke-linecap="round" opacity="0.7"/>
  <!-- Protective aura sparks -->
  <g fill="#F39C12" opacity="0.7">
    <polygon points="20,20 22,25 17,23 27,23 22,21"/>
    <polygon points="44,20 42,25 47,23 37,23 42,21" transform="scale(0.7 0.7) translate(15 15)"/>
  </g>
</svg>