<svg xmlns="http://www.w3.org/2000/svg" viewBox="0 0 64 64" width="64" height="64">
  <defs>
    <linearGradient id="hslCloud" x1="0%" y1="0%" x2="0%" y2="100%">
      <stop offset="0%" stop-color="#90A4AE"/>
      <stop offset="100%" stop-color="#78909C"/>
    </linearGradient>
  </defs>
  <path d="M10 42c0 2.2 1.8 4 4 4h36c2.2 0 4-1.8 4-4v-6H10v6z" fill="url(#hslCloud)"/>
  <path d="M18 28c0-5.5 4.5-10 10-10s10 4.5 10 10c0 1.8-0.6 3.5-1.6 4.8l2 2c1.1-1.3 1.8-3 1.8-4.8 0-6.6-5.4-12-12-12S18 22.4 18 29c0 1.8 0.7 3.5 1.8 4.8L18 28z" fill="#78909C"/>
  <path d="M48 28c0-5.5-4.5-10-10-10s-10 4.5-10 10c0 1.8 0.6 3.5 1.6 4.8l-2 2C35.3 33.6 34 31.6 34 29c0-6.6 5.4-12 12-12s12 5.4 12 12c0 1.8-0.7 3.5-1.8 4.8l-2-2z" fill="#607D8B"/>
  <!-- Heavy sleet - dense ice pellets + rain -->
  <g stroke="#4FC3F7" stroke-width="2.5" stroke-linecap="round" opacity="0.9" fill="none">
    <line x1="14" y1="45" x2="11" y2="51"/>
    <line x1="20" y1="45" x2="17" y2="51"/>
    <line x1="26" y1="45" x2="23" y2="51"/>
    <line x1="32" y1="45" x2="29" y2="51"/>
    <line x1="38" y1="45" x2="35" y2="51"/>
    <line x1="44" y1="45" x2="41" y2="51"/>
    <line x1="50" y1="45" x2="47" y2="51"/>
    <line x1="16" y1="47" x2="13" y2="53" opacity="0.7"/>
    <line x1="22" y1="47" x2="19" y2="53" opacity="0.7"/>
    <line x1="28" y1="47" x2="25" y2="53" opacity="0.7"/>
    <line x1="34" y1="47" x2="31" y2="53" opacity="0.7"/>
    <line x1="40" y1="47" x2="37" y2="53" opacity="0.7"/>
    <line x1="46" y1="47" x2="43" y2="53" opacity="0.7"/>
    <line x1="52" y1="47" x2="49" y2="53" opacity="0.7"/>
    <line x1="18" y1="49" x2="15" y2="55" opacity="0.5"/>
    <line x1="30" y1="49" x2="27" y2="55" opacity="0.5"/>
    <line x1="42" y1="49" x2="39" y2="55" opacity="0.5"/>
    <line x1="48" y1="49" x2="45" y2="55" opacity="0.5"/>
  </g>
  <!-- Ice pellets - dense -->
  <g fill="#81D4FA" opacity="0.9">
    <circle cx="13" cy="52" r="1.5"/>
    <circle cx="19" cy="52" r="1.3"/>
    <circle cx="25" cy="52" r="1.5"/>
    <circle cx="31" cy="52" r="1.3"/>
    <circle cx="37" cy="52" r="1.5"/>
    <circle cx="43" cy="52" r="1.3"/>
    <circle cx="49" cy="52" r="1.5"/>
    <circle cx="16" cy="55" r="1.2"/>
    <circle cx="22" cy="55" r="1"/>
    <circle cx="28" cy="55" r="1.2"/>
    <circle cx="34" cy="55" r="1"/>
    <circle cx="40" cy="55" r="1.2"/>
    <circle cx="46" cy="55" r="1"/>
    <circle cx="14" cy="57" r="0.8"/>
    <circle cx="32" cy="57" r="0.9"/>
    <circle cx="44" cy="57" r="0.8"/>
  </g>
  <g fill="#B3E5FC" opacity="0.7">
    <circle cx="13" cy="52" r="0.6"/>
    <circle cx="25" cy="52" r="0.7"/>
    <circle cx="37" cy="52" r="0.6"/>
    <circle cx="49" cy="52" r="0.7"/>
  </g>
  <!-- Splatters on ground -->
  <g fill="#4FC3F7" opacity="0.6">
    <ellipse cx="12" cy="56" rx="2" ry="0.7"/>
    <ellipse cx="20" cy="55" rx="2.2" ry="0.8"/>
    <ellipse cx="28" cy="56" rx="2" ry="0.7"/>
    <ellipse cx="36" cy="55" rx="2.2" ry="0.8"/>
    <ellipse cx="44" cy="56" rx="2" ry="0.7"/>
    <ellipse cx="50" cy="55" rx="2.2" ry="0.8"/>
  </g>
  <!-- Face - crisp, "this is intense" -->
  <g fill="#455A64" opacity="0.9">
    <ellipse cx="25" cy="32" rx="2.3" ry="1.1" transform="rotate(-15 25 32)"/>
    <ellipse cx="39" cy="31" rx="2.3" ry="1.1" transform="rotate(15 39 31)"/>
  </g>
  <path d="M27 38 Q32 36 37 38" stroke="#455A64" stroke-width="1.5" fill="none" stroke-linecap="round" opacity="0.8"/>
  <path d="M29 36 Q32 35 35 36" stroke="#455A64" stroke-width="0.9" fill="none" stroke-linecap="round" opacity="0.5"/>
  <g fill="#E8A0BF" opacity="0.4">
    <ellipse cx="20" cy="35" rx="2.3" ry="1.2"/>
    <ellipse cx="44" cy="34" rx="2.3" ry="1.2"/>
  </g>
</svg>