<svg xmlns="http://www.w3.org/2000/svg" viewBox="0 0 64 64" width="64" height="64">
  <defs>
    <linearGradient id="snowCloud" x1="0%" y1="0%" x2="0%" y2="100%">
      <stop offset="0%" stop-color="#F8FAFF"/>
      <stop offset="50%" stop-color="#E8EDF5"/>
      <stop offset="100%" stop-color="#D8DDE8"/>
    </linearGradient>
    <filter id="snowSoft" x="-20%" y="-20%" width="140%" height="140%">
      <feDropShadow dx="0" dy="2" stdDeviation="3" flood-color="#A8C0E0" flood-opacity="0.15"/>
    </filter>
  </defs>
  <g filter="url(#snowSoft)">
    <path d="M14 44
      C14 47.5 16.5 50.5 20 50.5
      H44
      C47.5 50.5 50 47.5 50 44
      C50 39 46.5 35 42 35
      C39 31.5 34 29 30 29
      C24 29 20 31.5 20 36.5
      C20 40.5 22.5 43.5 27 43.5
      C29 43.5 31 41.5 31 39.5
      C31 37 28.5 35 25 35
      C22 35 19.5 37.5 19.5 40.5
      C19.5 43 21.5 45 25 45
      H43
      C46 45 48 42.5 48 39
      C48 34 44 30 39 30
      C35 25.5 29 23 23 23
      C17 23 14 26.5 14 33
      Z" fill="url(#snowCloud)"/>
  </g>
  <!-- Snowflakes - unique, delicate, dancing -->
  <g fill="#FFFFFF" opacity="0.95" stroke="#E8EDF5" stroke-width="0.5">
    <g transform="translate(20,50)">
      <line x1="0" y1="-4" x2="0" y2="4" stroke-width="1.5"/>
      <line x1="-4" y1="0" x2="4" y2="0" stroke-width="1.5"/>
      <line x1="-2.8" y1="-2.8" x2="2.8" y2="2.8" stroke-width="1"/>
      <line x1="-2.8" y1="2.8" x2="2.8" y2="-2.8" stroke-width="1"/>
    </g>
    <g transform="translate(34,48) scale(0.8)">
      <line x1="0" y1="-4" x2="0" y2="4" stroke-width="1.5"/>
      <line x1="-4" y1="0" x2="4" y2="0" stroke-width="1.5"/>
      <line x1="-2.8" y1="-2.8" x2="2.8" y2="2.8" stroke-width="1"/>
      <line x1="-2.8" y1="2.8" x2="2.8" y2="-2.8" stroke-width="1"/>
    </g>
    <g transform="translate(44,52) scale(0.6)">
      <line x1="0" y1="-4" x2="0" y2="4" stroke-width="1.5"/>
      <line x1="-4" y1="0" x2="4" y2="0" stroke-width="1.5"/>
      <line x1="-2.8" y1="-2.8" x2="2.8" y2="2.8" stroke-width="1"/>
      <line x1="-2.8" y1="2.8" x2="2.8" y2="-2.8" stroke-width="1"/>
    </g>
    <g transform="translate(16,54) scale(0.7)">
      <line x1="0" y1="-4" x2="0" y2="4" stroke-width="1.5"/>
      <line x1="-4" y1="0" x2="4" y2="0" stroke-width="1.5"/>
      <line x1="-2.8" y1="-2.8" x2="2.8" y2="2.8" stroke-width="1"/>
      <line x1="-2.8" y1="2.8" x2="2.8" y2="-2.8" stroke-width="1"/>
    </g>
    <g transform="translate(38,55) scale(0.5)">
      <line x1="0" y1="-4" x2="0" y2="4" stroke-width="1.5"/>
      <line x1="-4" y1="0" x2="4" y2="0" stroke-width="1.5"/>
      <line x1="-2.8" y1="-2.8" x2="2.8" y2="2.8" stroke-width="1"/>
      <line x1="-2.8" y1="2.8" x2="2.8" y2="-2.8" stroke-width="1"/>
    </g>
  </g>
  <!-- Gentle face - quiet wonder -->
  <g fill="#7A9CC6" opacity="0.7">
    <ellipse cx="25" cy="32" rx="2.2" ry="1" transform="rotate(-12 25 32)"/>
    <ellipse cx="39" cy="31" rx="2.2" ry="1" transform="rotate(12 39 31)"/>
  </g>
  <path d="M27 38.5 Q32 40.5 37 38.5" stroke="#7A9CC6" stroke-width="1.2" fill="none" stroke-linecap="round" opacity="0.6"/>
  <!-- Rosy cheeks from cold -->
  <g fill="#E8B4D0" opacity="0.4">
    <ellipse cx="20" cy="36" rx="2.5" ry="1.3"/>
    <ellipse cx="44" cy="35" rx="2.5" ry="1.3"/>
  </g>
</svg>