<svg xmlns="http://www.w3.org/2000/svg" viewBox="0 0 64 64" width="64" height="64">
  <defs>
    <linearGradient id="hsCloud" x1="0%" y1="0%" x2="0%" y2="100%">
      <stop offset="0%" stop-color="#D5D8E0"/>
      <stop offset="50%" stop-color="#C0C4CC"/>
      <stop offset="100%" stop-color="#A8ACB8"/>
    </linearGradient>
  </defs>
  <path d="M10 44c0 2.2 1.8 4 4 4h36c2.2 0 4-1.8 4-4v-6H10v6z" fill="url(#hsCloud)"/>
  <path d="M18 28c0-5.5 4.5-10 10-10s10 4.5 10 10c0 1.8-0.6 3.5-1.6 4.8l2 2c1.1-1.3 1.8-3 1.8-4.8 0-6.6-5.4-12-12-12S18 22.4 18 29c0 1.8 0.7 3.5 1.8 4.8L18 28z" fill="#C0C4CC"/>
  <path d="M48 28c0-5.5-4.5-10-10-10s-10 4.5-10 10c0 1.8 0.6 3.5 1.6 4.8l-2 2C35.3 33.6 34 31.6 34 29c0-6.6 5.4-12 12-12s12 5.4 12 12c0 1.8-0.7 3.5-1.8 4.8l-2-2z" fill="#A8ACB8"/>
  <!-- Heavy snow - thick, blanketing -->
  <g fill="#FFFFFF" opacity="0.95">
    <circle cx="12" cy="48" r="3"/>
    <circle cx="22" cy="46" r="3.5"/>
    <circle cx="32" cy="48" r="3"/>
    <circle cx="42" cy="46" r="3.5"/>
    <circle cx="52" cy="48" r="3"/>
    <!-- Mid -->
    <circle cx="17" cy="50" r="2.5" opacity="0.85"/>
    <circle cx="27" cy="48" r="3" opacity="0.85"/>
    <circle cx="37" cy="50" r="2.5" opacity="0.85"/>
    <circle cx="47" cy="48" r="3" opacity="0.85"/>
    <!-- Far -->
    <circle cx="14" cy="52" r="2" opacity="0.7"/>
    <circle cx="24" cy="51" r="2.2" opacity="0.7"/>
    <circle cx="34" cy="52" r="2" opacity="0.7"/>
    <circle cx="44" cy="51" r="2.2" opacity="0.7"/>
    <circle cx="50" cy="52" r="2" opacity="0.7"/>
    <!-- Accumulating -->
    <circle cx="20" cy="54" r="1.5" opacity="0.6"/>
    <circle cx="40" cy="53" r="1.8" opacity="0.6"/>
    <circle cx="30" cy="55" r="1.3" opacity="0.6"/>
  </g>
  <!-- Snow blanket on cloud -->
  <g fill="#FFFFFF" opacity="0.4">
    <ellipse cx="32" cy="42" rx="20" ry="4"/>
    <ellipse cx="32" cy="39" rx="18" ry="3"/>
  </g>
  <!-- Face - hushed, deep quiet -->
  <g fill="#8AA0C8" opacity="0.85">
    <ellipse cx="25" cy="31" rx="2.3" ry="1" transform="rotate(-12 25 31)"/>
    <ellipse cx="39" cy="30" rx="2.3" ry="1" transform="rotate(12 39 30)"/>
  </g>
  <path d="M27 37 Q32 39 37 37" stroke="#8AA0C8" stroke-width="1.3" fill="none" stroke-linecap="round" opacity="0.6"/>
  <g fill="#E8C0D8" opacity="0.35">
    <ellipse cx="20" cy="34" rx="2.5" ry="1.3"/>
    <ellipse cx="44" cy="33" rx="2.5" ry="1.3"/>
  </g>
  <!-- Sparkles of wonder -->
  <g fill="#B8CCE8" opacity="0.7">
    <circle cx="16" cy="38" r="1"/>
    <circle cx="48" cy="36" r="0.8"/>
    <circle cx="22" cy="40" r="0.7"/>
    <circle cx="42" cy="39" r="0.9"/>
  </g>
</svg>