<svg xmlns="http://www.w3.org/2000/svg" viewBox="0 0 64 64" width="64" height="64">
  <defs>
    <linearGradient id="sleetCloud" x1="0%" y1="0%" x2="0%" y2="100%">
      <stop offset="0%" stop-color="#D5DBDB"/>
      <stop offset="100%" stop-color="#ABB2B9"/>
    </linearGradient>
  </defs>
  <path d="M10 42c0 2.2 1.8 4 4 4h36c2.2 0 4-1.8 4-4v-6H10v6z" fill="url(#sleetCloud)"/>
  <path d="M18 28c0-5.5 4.5-10 10-10s10 4.5 10 10c0 1.8-0.6 3.5-1.6 4.8l2 2c1.1-1.3 1.8-3 1.8-4.8 0-6.6-5.4-12-12-12S18 22.4 18 29c0 1.8 0.7 3.5 1.8 4.8L18 28z" fill="#95A5A6"/>
  <!-- Mixed precipitation - rain AND snow, confused but pretty -->
  <g stroke="#4A90D9" stroke-width="2" stroke-linecap="round" fill="none" opacity="0.85">
    <line x1="20" y1="46" x2="18" y2="53"/>
    <line x1="28" y1="45" x2="26" y2="52"/>
    <line x1="36" y1="46" x2="34" y2="53"/>
    <line x1="44" y1="45" x2="42" y2="52"/>
  </g>
  <g fill="#FFFFFF" opacity="0.9">
    <circle cx="16" cy="50" r="1.8"/>
    <circle cx="30" cy="48" r="2.2"/>
    <circle cx="42" cy="50" r="1.8"/>
    <circle cx="24" cy="53" r="1.5" opacity="0.7"/>
    <circle cx="38" cy="51" r="1.5" opacity="0.7"/>
  </g>
  <g fill="#FFFFFF" opacity="0.6" stroke="#E0E0E0" stroke-width="0.5">
    <circle cx="14" cy="48" r="2.2"/>
    <circle cx="32" cy="47" r="2.5"/>
    <circle cx="50" cy="48" r="2"/>
  </g>
  <!-- Face - quizzical, "what am I?" but kind -->
  <g fill="#6B8A9A" opacity="0.8">
    <ellipse cx="26" cy="31" rx="2.5" ry="1.1" transform="rotate(-8 26 31)"/>
    <ellipse cx="38" cy="30" rx="2.5" ry="1.1" transform="rotate(8 38 30)"/>
  </g>
  <path d="M28 37 Q32 39.5 36 37" stroke="#6B8A9A" stroke-width="1.3" fill="none" stroke-linecap="round" opacity="0.7"/>
  <path d="M30 35 Q32 34 34 35" stroke="#6B8A9A" stroke-width="0.8" fill="none" stroke-linecap="round" opacity="0.5"/>
</svg>